<?xml version="1.0" encoding="utf-8"?>
<!-- Generator: Adobe Illustrator 16.0.0, SVG Export Plug-In . SVG Version: 6.00 Build 0)  -->
<!DOCTYPE svg PUBLIC "-//W3C//DTD SVG 1.1//EN" "http://www.w3.org/Graphics/SVG/1.1/DTD/svg11.dtd">
<svg version="1.1"
	 id="Layer_1" xmlns:dc="http://purl.org/dc/elements/1.1/" xmlns:cc="http://creativecommons.org/ns#" xmlns:rdf="http://www.w3.org/1999/02/22-rdf-syntax-ns#" xmlns:svg="http://www.w3.org/2000/svg"
	 xmlns="http://www.w3.org/2000/svg" xmlns:xlink="http://www.w3.org/1999/xlink" x="0px" y="0px" width="570px" height="720px"
	 viewBox="0 0 570 720" enable-background="new 0 0 570 720" xml:space="preserve">
<path d="M158.375,1.656c-3.619,0.112-7.518,1.449-11.938,4.938c-10.827-4.176-21.327-5.627-30.719,2.875
	C101.225,7.588,96.508,11.469,92.938,16c-3.183-0.065-23.819-3.271-33.281,10.844C35.874,24.03,28.36,40.832,36.875,56.5
	c-4.857,7.52-9.89,14.947,1.469,29.281c-4.019,7.983-1.527,16.645,7.938,27.125c-2.498,11.223,2.412,19.142,11.219,25.312
	c-1.647,15.357,14.083,24.288,18.781,27.469c1.804,8.949,5.562,17.393,23.531,22.062c2.963,13.336,13.762,15.64,24.219,18.438
	c-34.562,20.09-64.201,46.522-64,111.375l-5.062,9.031C15.338,350.696-20.316,428.16,35.438,491.125
	c3.642,19.709,9.749,33.864,15.188,49.531c8.134,63.131,61.218,92.692,75.219,96.188c20.517,15.629,42.368,30.457,71.938,40.844
	c27.875,28.75,58.073,39.707,88.438,39.688c0.445,0,0.898,0.006,1.344,0c30.363,0.02,60.562-10.938,88.438-39.688
	c29.568-10.387,51.421-25.215,71.938-40.844c14.001-3.495,67.084-33.057,75.219-96.188c5.438-15.667,11.545-29.822,15.188-49.531
	c55.754-62.965,20.1-140.429-19.531-164.531l-5.062-9.031c0.2-64.853-29.438-91.285-64-111.375
	c10.456-2.798,21.255-5.102,24.219-18.438c17.968-4.67,21.727-13.113,23.531-22.062c4.697-3.181,20.428-12.111,18.781-27.469
	c8.807-6.171,13.716-14.09,11.219-25.312c9.465-10.48,11.955-19.142,7.938-27.125c11.357-14.334,6.325-21.762,1.469-29.281
	c8.515-15.668,1-32.47-22.781-29.656c-9.463-14.115-30.1-10.909-33.281-10.844c-3.571-4.53-8.288-8.412-22.781-6.531
	c-9.393-8.502-19.893-7.051-30.719-2.875c-12.859-10.147-21.373-2.013-31.094,1.062c-15.574-5.088-19.133,1.881-26.781,4.719
	c-16.976-3.588-22.136,4.224-30.281,12.469l-9.469-0.188c-25.61,15.094-38.334,45.826-42.844,61.625
	c-4.513-15.802-17.207-46.534-42.812-61.625l-9.469,0.188c-8.146-8.245-13.307-16.057-30.281-12.469
	c-7.648-2.838-11.208-9.807-26.781-4.719C171.152,5.637,165.284,1.442,158.375,1.656z"/>
<path fill="#8DB4A3" d="M107.392,68.055c67.947,35.031,107.447,63.369,129.087,87.505c-11.082,44.417-68.896,46.444-90.035,45.198
	c4.328-2.015,7.939-4.428,9.221-8.136c-5.305-3.77-24.113-0.397-37.244-7.774c5.044-1.045,7.403-2.062,9.763-5.785
	c-12.405-3.957-25.769-7.366-33.627-13.921c4.241,0.052,8.2,0.948,13.74-2.893c-11.112-5.988-22.97-10.733-32.182-19.888
	c5.745-0.141,11.939-0.057,13.74-2.17c-10.17-6.3-18.751-13.308-25.854-20.972c8.04,0.971,11.436,0.135,13.379-1.266
	c-7.688-7.874-17.418-14.523-22.057-24.227c5.969,2.058,11.431,2.845,15.367-0.181c-2.612-5.894-13.806-9.369-20.249-23.142
	c6.284,0.609,12.949,1.371,14.282,0c-2.922-11.889-7.927-18.57-12.836-25.492c13.45-0.199,33.828,0.053,32.904-1.085l-8.316-8.497
	c13.138-3.537,26.581,0.568,36.34,3.616c4.382-3.458-0.077-7.83-5.424-12.294c11.165,1.49,21.254,4.057,30.373,7.593
	c4.873-4.399-3.163-8.799-7.051-13.197c17.25,3.272,24.558,7.87,31.82,12.475c5.269-5.051,0.302-9.344-3.255-13.74
	c13.006,4.816,19.705,11.035,26.758,17.175c2.392-3.227,6.075-5.592,1.627-13.379c9.234,5.323,16.189,11.596,21.334,18.622
	c5.713-3.638,3.404-8.613,3.436-13.198c9.596,7.807,15.687,16.114,23.142,24.227c1.501-1.093,2.816-4.802,3.977-10.667
	c22.896,22.212,55.246,78.158,8.317,100.341C207.95,109.958,160.253,86.017,107.392,68.055z"/>
<path fill="#8DB4A3" d="M467.925,68.055c-67.948,35.031-107.447,63.369-129.087,87.505c11.082,44.417,68.896,46.444,90.035,45.198
	c-4.329-2.015-7.94-4.428-9.221-8.136c5.305-3.77,24.113-0.397,37.243-7.774c-5.044-1.045-7.403-2.062-9.763-5.785
	c12.406-3.957,25.769-7.366,33.628-13.921c-4.241,0.052-8.201,0.948-13.74-2.893c11.111-5.988,22.969-10.733,32.182-19.888
	c-5.745-0.141-11.939-0.057-13.74-2.17c10.17-6.3,18.751-13.308,25.854-20.972c-8.04,0.971-11.436,0.135-13.379-1.266
	c7.688-7.874,17.417-14.523,22.057-24.227c-5.97,2.058-11.432,2.845-15.367-0.181c2.612-5.894,13.805-9.369,20.249-23.142
	c-6.285,0.609-12.95,1.371-14.283,0c2.923-11.889,7.928-18.57,12.837-25.492c-13.45-0.199-33.828,0.053-32.905-1.085l8.316-8.497
	c-13.138-3.537-26.58,0.568-36.339,3.616c-4.382-3.458,0.077-7.83,5.424-12.294c-11.165,1.49-21.254,4.057-30.374,7.593
	c-4.872-4.399,3.164-8.799,7.051-13.197c-17.249,3.272-24.557,7.87-31.819,12.475c-5.27-5.051-0.302-9.344,3.254-13.74
	c-13.005,4.816-19.704,11.035-26.757,17.175c-2.392-3.227-6.075-5.592-1.627-13.379c-9.234,5.323-16.189,11.596-21.334,18.622
	c-5.714-3.638-3.404-8.613-3.436-13.198c-9.597,7.807-15.687,16.114-23.142,24.227c-1.501-1.093-2.816-4.802-3.978-10.667
	c-22.896,22.212-55.246,78.158-8.316,100.341C367.366,109.958,415.064,86.017,467.925,68.055L467.925,68.055z"/>
<path fill="#BB5E5E" d="M369.947,520.361c0,41.45-36.439,75.052-81.391,75.052c-44.95,0-81.39-33.602-81.39-75.052
	c0-41.449,36.439-75.052,81.39-75.052C333.507,445.309,369.947,478.912,369.947,520.361z"/>
<path fill="#BB5E5E" d="M241.454,305.963c33.724,22.095,39.803,72.177,13.578,111.862c-26.225,39.685-74.822,53.944-108.546,31.85
	l0,0c-33.725-22.095-39.804-72.177-13.579-111.861C159.132,298.128,207.73,283.868,241.454,305.963L241.454,305.963z"/>
<path fill="#BB5E5E" d="M332.487,301.963c-33.725,22.095-39.804,72.177-13.579,111.862c26.225,39.685,74.822,53.944,108.546,31.85
	l0,0c33.725-22.095,39.804-72.177,13.579-111.861C414.808,294.128,366.21,279.868,332.487,301.963L332.487,301.963z"/>
<path fill="#BB5E5E" d="M72.91,342.088c36.414-9.757,12.291,150.637-17.334,137.477C22.99,453.351,12.493,376.589,72.91,342.088z"/>
<path fill="#BB5E5E" d="M493.678,340.088c-36.414-9.757-12.292,150.637,17.333,137.477
	C543.598,451.351,554.094,374.589,493.678,340.088z"/>
<path fill="#BB5E5E" d="M369.972,220.653c62.834-10.609,115.115,26.723,113.011,94.858
	C480.916,341.633,346.824,224.543,369.972,220.653z"/>
<path fill="#BB5E5E" d="M196.36,218.653c-62.835-10.609-115.116,26.723-113.012,94.858
	C85.415,339.633,219.507,222.543,196.36,218.653z"/>
<path fill="#BB5E5E" d="M286.619,202.756c-37.503-0.976-73.495,27.834-73.582,44.545c-0.104,20.304,29.651,41.092,73.838,41.62
	c45.123,0.323,73.915-16.641,74.061-37.595C361.101,227.587,319.898,202.389,286.619,202.756z"/>
<path fill="#BB5E5E" d="M288.909,619.117c32.697-1.427,76.57,10.532,76.656,26.396c0.543,15.404-39.789,50.21-78.826,49.537
	c-40.427,1.744-80.068-33.115-79.549-45.198C206.585,632.136,256.416,618.304,288.909,619.117z"/>
<path fill="#BB5E5E" d="M168.139,525.104c23.279,28.046,33.891,77.318,14.463,91.843c-18.379,11.088-63.012,6.522-94.735-39.051
	c-21.396-38.242-18.638-77.157-3.616-88.59C106.714,475.623,141.423,494.105,168.139,525.104z"/>
<path fill="#BB5E5E" d="M405.021,516.212c-25.187,29.502-39.212,83.31-20.838,100.644c17.568,13.463,64.729,11.581,99.565-36.756
	c25.296-32.465,16.82-86.683,2.371-101.075C464.656,462.422,433.842,483.669,405.021,516.212z"/>
</svg>
